<svg width="220" height="55" viewBox="0 0 220 55" fill="none" xmlns="http://www.w3.org/2000/svg">
<rect width="220" height="55" fill="#D7B399"/>
<path d="M43.528 28.224C44.3067 28.384 44.8987 28.6987 45.304 29.168C45.7093 29.6267 45.912 30.2293 45.912 30.976C45.912 31.9467 45.5653 32.6933 44.872 33.216C44.1893 33.7387 43.1813 34 41.848 34H36.888V22.8H41.544C42.7387 22.8 43.672 23.0453 44.344 23.536C45.016 24.0267 45.352 24.736 45.352 25.664C45.352 26.2933 45.192 26.8267 44.872 27.264C44.552 27.6907 44.104 28.0107 43.528 28.224ZM38.056 27.872H41.48C42.344 27.872 43.0053 27.696 43.464 27.344C43.9333 26.992 44.168 26.48 44.168 25.808C44.168 25.136 43.9333 24.624 43.464 24.272C43.0053 23.92 42.344 23.744 41.48 23.744H38.056V27.872ZM41.848 33.056C43.7787 33.056 44.744 32.336 44.744 30.896C44.744 29.488 43.7787 28.784 41.848 28.784H38.056V33.056H41.848ZM54.2484 34.096C53.139 34.096 52.1364 33.8507 51.2404 33.36C50.355 32.8693 49.6564 32.192 49.1444 31.328C48.643 30.4533 48.3924 29.4773 48.3924 28.4C48.3924 27.3227 48.643 26.352 49.1444 25.488C49.6564 24.6133 50.3604 23.9307 51.2564 23.44C52.1524 22.9493 53.155 22.704 54.2644 22.704C55.0964 22.704 55.8644 22.8427 56.5684 23.12C57.2724 23.3973 57.8697 23.8027 58.3604 24.336L57.6084 25.088C56.7337 24.2027 55.6297 23.76 54.2964 23.76C53.411 23.76 52.6057 23.9627 51.8804 24.368C51.155 24.7733 50.5844 25.328 50.1684 26.032C49.763 26.736 49.5604 27.5253 49.5604 28.4C49.5604 29.2747 49.763 30.064 50.1684 30.768C50.5844 31.472 51.155 32.0267 51.8804 32.432C52.6057 32.8373 53.411 33.04 54.2964 33.04C55.6404 33.04 56.7444 32.592 57.6084 31.696L58.3604 32.448C57.8697 32.9813 57.267 33.392 56.5524 33.68C55.8484 33.9573 55.0804 34.096 54.2484 34.096ZM69.2055 32.976V34H61.2855V22.8H68.9655V23.824H62.4695V27.808H68.2615V28.816H62.4695V32.976H69.2055ZM88.6119 22.8V34H87.4759V25.04L83.0759 32.576H82.5159L78.1159 25.088V34H76.9799V22.8H77.9559L82.8199 31.104L87.6359 22.8H88.6119ZM97.7781 34.096C96.6688 34.096 95.6608 33.8507 94.7541 33.36C93.8581 32.8587 93.1541 32.176 92.6421 31.312C92.1408 30.448 91.8901 29.4773 91.8901 28.4C91.8901 27.3227 92.1408 26.352 92.6421 25.488C93.1541 24.624 93.8581 23.9467 94.7541 23.456C95.6608 22.9547 96.6688 22.704 97.7781 22.704C98.8875 22.704 99.8848 22.9493 100.77 23.44C101.666 23.9307 102.37 24.6133 102.882 25.488C103.394 26.352 103.65 27.3227 103.65 28.4C103.65 29.4773 103.394 30.4533 102.882 31.328C102.37 32.192 101.666 32.8693 100.77 33.36C99.8848 33.8507 98.8875 34.096 97.7781 34.096ZM97.7781 33.04C98.6635 33.04 99.4635 32.8427 100.178 32.448C100.893 32.0427 101.453 31.488 101.858 30.784C102.263 30.0693 102.466 29.2747 102.466 28.4C102.466 27.5253 102.263 26.736 101.858 26.032C101.453 25.3173 100.893 24.7627 100.178 24.368C99.4635 23.9627 98.6635 23.76 97.7781 23.76C96.8928 23.76 96.0875 23.9627 95.3621 24.368C94.6475 24.7627 94.0821 25.3173 93.6661 26.032C93.2608 26.736 93.0581 27.5253 93.0581 28.4C93.0581 29.2747 93.2608 30.0693 93.6661 30.784C94.0821 31.488 94.6475 32.0427 95.3621 32.448C96.0875 32.8427 96.8928 33.04 97.7781 33.04ZM116.931 32.976V36.512H115.827V34H106.051L106.035 36.512H104.931L104.947 32.976H105.507C106.243 32.9333 106.755 32.352 107.043 31.232C107.331 30.1013 107.507 28.5013 107.571 26.432L107.699 22.8H115.251V32.976H116.931ZM108.627 26.544C108.574 28.2507 108.44 29.6587 108.227 30.768C108.024 31.8667 107.678 32.6027 107.187 32.976H114.083V23.824H108.723L108.627 26.544ZM127.746 32.976V34H119.826V22.8H127.506V23.824H121.01V27.808H126.802V28.816H121.01V32.976H127.746ZM139.637 22.8V34H138.469V23.824H133.061L132.933 27.568C132.88 29.1147 132.752 30.3627 132.549 31.312C132.357 32.2507 132.058 32.9547 131.653 33.424C131.248 33.8827 130.709 34.112 130.037 34.112C129.749 34.112 129.45 34.0747 129.141 34L129.237 32.944C129.418 32.9867 129.594 33.008 129.765 33.008C130.234 33.008 130.613 32.8213 130.901 32.448C131.2 32.0747 131.424 31.4987 131.573 30.72C131.722 29.9307 131.824 28.8907 131.877 27.6L132.037 22.8H139.637ZM143.895 22.8H145.063V32.08L152.232 22.8H153.304V34H152.135V24.736L144.967 34H143.895V22.8Z" fill="white"/>
<path d="M185.354 28.3536C185.549 28.1583 185.549 27.8417 185.354 27.6464L182.172 24.4645C181.976 24.2692 181.66 24.2692 181.464 24.4645C181.269 24.6597 181.269 24.9763 181.464 25.1716L184.293 28L181.464 30.8284C181.269 31.0237 181.269 31.3403 181.464 31.5355C181.66 31.7308 181.976 31.7308 182.172 31.5355L185.354 28.3536ZM165 28.5L185 28.5V27.5L165 27.5V28.5Z" fill="white"/>
</svg>
